<?xml version="1.0" encoding="utf-8"?>
<!-- Generator: Adobe Illustrator 19.0.0, SVG Export Plug-In . SVG Version: 6.00 Build 0)  -->
<svg version="1.1" id="Camada_1" xmlns="http://www.w3.org/2000/svg" xmlns:xlink="http://www.w3.org/1999/xlink" x="0px" y="0px"
	 viewBox="0 0 80 80" style="enable-background:new 0 0 80 80;" xml:space="preserve">
<style type="text/css">
	.st0{fill:#17A7FF;}
	.st1{fill:#FFFFFF;}
	.st2{fill:#FF4343;}
	.st3{fill:#A53EFF;}
</style>
<circle id="XMLID_615_" class="st0" cx="49" cy="-90.5" r="64.5"/>
<g id="XMLID_609_">
	<path id="XMLID_614_" class="st1" d="M55.7,16.8c2.5,2.5,5,5,7.4,7.5c-0.1,0.1-0.2,0.2-0.4,0.4c-12.7,12.7-25.4,25.4-38.1,38
		c-1.6,1.6-3.4,2.2-5.5,1.5c-3.8-1.1-5-5.9-2.1-8.8c2.1-2.1,4.2-4.2,6.3-6.3C34,38.6,44.6,28,55.2,17.4C55.4,17.2,55.5,17,55.7,16.8
		z"/>
	<path id="XMLID_613_" class="st1" d="M73.3,28.2C66.2,21,59.1,13.9,51.9,6.6C53.5,5.1,55,3.4,56.8,2c3.8-2.9,9.3-2.6,12.8,0.7
		c2.6,2.5,5.2,5,7.6,7.6c3.7,3.9,3.6,10.2-0.2,14C75.8,25.7,74.6,26.9,73.3,28.2z"/>
	<path id="XMLID_612_" class="st1" d="M66.2,27.3c1.4,1.4,2.7,2.7,4,4c-0.1,0.1-0.2,0.3-0.3,0.4C57.1,44.4,44.3,57.1,31.6,69.8
		c-0.9,0.9-1.8,1.2-3,0.8c-1.1-0.4-1.7-1.2-1.9-2.3c-0.1-1,0.2-1.8,0.9-2.5c3.2-3.2,6.4-6.3,9.5-9.5c9.5-9.5,19.1-19.1,28.6-28.6
		C66,27.7,66.1,27.5,66.2,27.3z"/>
	<path id="XMLID_611_" class="st1" d="M48.7,9.9c1.4,1.4,2.6,2.6,3.9,3.9c-0.1,0.1-0.2,0.3-0.4,0.4C39.5,26.9,26.8,39.6,14.1,52.3
		c-1.2,1.2-2.9,1.3-4,0.3c-1.2-1.1-1.2-2.9,0-4.1c2-2,4-4,5.9-5.9c10.7-10.7,21.5-21.4,32.2-32.2C48.4,10.2,48.5,10,48.7,9.9z"/>
	<path id="XMLID_610_" class="st1" d="M6.3,54.7c1.2,1.8,3,2.6,4.9,2.9C10,64,15.8,69.9,22.5,68.7c0.3,1.9,0.9,3.7,2.7,5
		C16.7,75.8,8.4,77.9,0,80C2.1,71.5,4.2,63.2,6.3,54.7z"/>
</g>
<circle id="XMLID_607_" class="st2" cx="197.5" cy="-90.5" r="64.5"/>
<g id="XMLID_598_">
	<path id="XMLID_602_" class="st1" d="M170.4-109.6c18.1,0,36.2,0,54.3,0c-0.1,1.2-0.2,2.5-0.4,3.7c-0.5,5-1,9.9-1.5,14.9
		c-0.6,5.7-1.2,11.4-1.8,17.1c-0.5,4.9-1,9.7-1.5,14.6c-0.1,1.3-0.1,2.6-0.5,3.9c-0.7,2.5-2.3,4.2-4.8,5c-0.9,0.3-1.9,0.4-2.9,0.4
		c-9.2,0-18.5,0-27.7,0c-3.7,0-6.5-1.8-7.6-5.1c-0.3-0.9-0.3-1.9-0.4-2.8c-0.8-7.8-1.6-15.6-2.4-23.4c-0.7-7.3-1.5-14.5-2.2-21.8
		c-0.2-2.1-0.4-4.2-0.7-6.3C170.4-109.3,170.4-109.4,170.4-109.6z M195.1-81.1c0,6.4,0,12.8,0,19.2c0,0.3,0,0.7,0,1
		c0.1,1.7,1.7,2.7,3.2,2.1c1-0.4,1.5-1.3,1.5-2.6c0-13.2,0-26.3,0-39.5c0-0.3,0-0.5-0.1-0.8c-0.2-1.3-1.4-2.2-2.7-2
		c-1.2,0.2-2,1.2-2,2.6C195.1-94.3,195.1-87.7,195.1-81.1z M189.2-60.8c-0.3-3.9-0.5-7.7-0.8-11.4c-0.5-7.7-1-15.4-1.5-23
		c-0.1-2-0.2-4.1-0.4-6.1c-0.1-1.4-1.2-2.4-2.6-2.3c-1.3,0.1-2.3,1.2-2.2,2.6c0.2,3.7,0.5,7.3,0.7,11c0.5,7.7,1,15.4,1.5,23.1
		c0.1,2.1,0.3,4.2,0.4,6.3c0.1,1.3,1.3,2.2,2.5,2.1C188.2-58.7,189.2-59.8,189.2-60.8z M206-62.1C205.9-62.1,205.9-62.1,206-62.1
		c-0.1,0.5-0.1,1-0.1,1.5c0.1,1.2,1.2,2.1,2.4,2.1c1.2,0,2.2-0.9,2.3-2.1c0.2-1.8,0.3-3.7,0.4-5.5c0.4-6.5,0.9-12.9,1.3-19.4
		c0.3-5.1,0.7-10.1,1-15.2c0.1-1.6-0.8-2.7-2.2-2.8c-1.4-0.1-2.5,0.9-2.6,2.5c-0.2,3-0.4,6-0.6,9C207.3-82.2,206.6-72.1,206-62.1z"
		/>
	<path id="XMLID_599_" class="st1" d="M183.8-120.3c0-1.7,0-3.3,0-4.9c0-0.6,0-1.3,0.1-1.9c0.4-2.4,1.9-3.7,4.3-3.9
		c0.5,0,1-0.1,1.4-0.1c5.3,0,10.6,0,15.8,0c0.5,0,1,0,1.4,0.1c2.7,0.2,4,1.5,4.2,4.2c0.1,1.9,0.1,3.8,0.1,5.7c0,0.2,0,0.5,0,0.8
		c0.3,0,0.6,0,0.8,0c3.5,0,7,0,10.5,0c0.6,0,1.3,0.1,1.8,0.3c1.9,0.6,3.2,2.4,3,4.3c-0.1,2-1.6,3.6-3.5,4c-0.4,0.1-0.8,0.1-1.2,0.1
		c-16.7,0-33.5,0-50.2,0c-1.4,0-2.7-0.5-3.6-1.5c-1.1-1.2-1.4-2.6-0.9-4.1c0.6-1.6,1.8-2.6,3.5-2.9c0.4-0.1,0.8-0.1,1.3-0.1
		c3.4,0,6.9,0,10.3,0C183.2-120.3,183.5-120.3,183.8-120.3z M189.8-120.4c5.2,0,10.3,0,15.4,0c0-1.6,0-3.1,0-4.7
		c-5.2,0-10.3,0-15.4,0C189.8-123.5,189.8-121.9,189.8-120.4z"/>
</g>
<circle id="XMLID_424_" class="st3" cx="-101" cy="-90.5" r="64.5"/>
</svg>
