<?xml version="1.0" encoding="utf-8"?>
<!-- Generator: Adobe Illustrator 19.0.0, SVG Export Plug-In . SVG Version: 6.00 Build 0)  -->
<svg version="1.1" id="Camada_1" xmlns="http://www.w3.org/2000/svg" xmlns:xlink="http://www.w3.org/1999/xlink" x="0px" y="0px"
	 viewBox="0 0 80 80" style="enable-background:new 0 0 80 80;" xml:space="preserve">
<style type="text/css">
	.st0{fill:#17A7FF;}
	.st1{fill:#FFFFFF;}
	.st2{fill:#FF4343;}
	.st3{fill:#A53EFF;}
</style>
<circle id="XMLID_615_" class="st0" cx="49" cy="-90.5" r="64.5"/>
<g id="XMLID_609_">
	<path id="XMLID_614_" class="st1" d="M62.5-110.5c2.2,2.2,4.3,4.3,6.4,6.5c-0.1,0.1-0.2,0.2-0.3,0.3C57.7-92.7,46.8-81.8,35.8-70.9
		c-1.3,1.3-2.9,1.9-4.7,1.3c-3.3-1-4.3-5.1-1.8-7.6c1.8-1.8,3.6-3.6,5.5-5.5c9.1-9.1,18.3-18.3,27.4-27.4
		C62.3-110.1,62.4-110.3,62.5-110.5z"/>
	<path id="XMLID_613_" class="st1" d="M77.8-100.7c-6.2-6.2-12.3-12.4-18.5-18.6c1.4-1.3,2.7-2.8,4.3-4c3.3-2.5,8-2.2,11.1,0.6
		c2.3,2.1,4.5,4.3,6.6,6.6c3.2,3.4,3.1,8.8-0.2,12.1C79.9-102.8,78.8-101.8,77.8-100.7z"/>
	<path id="XMLID_612_" class="st1" d="M71.6-101.4c1.2,1.2,2.3,2.3,3.4,3.4c-0.1,0.1-0.2,0.2-0.3,0.3c-11,11-22,22-33,32.9
		c-0.7,0.7-1.6,1-2.6,0.7c-0.9-0.3-1.5-1-1.6-2c-0.1-0.8,0.2-1.5,0.8-2.1c2.7-2.7,5.5-5.5,8.2-8.2c8.2-8.2,16.4-16.4,24.7-24.6
		C71.4-101.1,71.5-101.3,71.6-101.4z"/>
	<path id="XMLID_611_" class="st1" d="M56.5-116.5c1.2,1.2,2.3,2.3,3.4,3.4c-0.1,0.1-0.2,0.2-0.3,0.3c-11,10.9-21.9,21.9-32.9,32.8
		c-1.1,1.1-2.5,1.2-3.5,0.2c-1-1-1-2.5,0-3.5c1.7-1.7,3.4-3.4,5.1-5.1c9.3-9.2,18.5-18.5,27.8-27.7
		C56.3-116.2,56.4-116.3,56.5-116.5z"/>
	<path id="XMLID_610_" class="st1" d="M20-77.8c1.1,1.6,2.6,2.2,4.3,2.5c-1.1,5.5,3.9,10.6,9.7,9.6c0.2,1.7,0.8,3.2,2.3,4.3
		C29-59.6,21.8-57.8,14.5-56C16.4-63.3,18.1-70.5,20-77.8z"/>
</g>
<circle id="XMLID_607_" class="st2" cx="197.5" cy="-90.5" r="64.5"/>
<g id="XMLID_598_">
	<path id="XMLID_602_" class="st1" d="M170.4-109.6c18.1,0,36.2,0,54.3,0c-0.1,1.2-0.2,2.5-0.4,3.7c-0.5,5-1,9.9-1.5,14.9
		c-0.6,5.7-1.2,11.4-1.8,17.1c-0.5,4.9-1,9.7-1.5,14.6c-0.1,1.3-0.1,2.6-0.5,3.9c-0.7,2.5-2.3,4.2-4.8,5c-0.9,0.3-1.9,0.4-2.9,0.4
		c-9.2,0-18.5,0-27.7,0c-3.7,0-6.5-1.8-7.6-5.1c-0.3-0.9-0.3-1.9-0.4-2.8c-0.8-7.8-1.6-15.6-2.4-23.4c-0.7-7.3-1.5-14.5-2.2-21.8
		c-0.2-2.1-0.4-4.2-0.7-6.3C170.4-109.3,170.4-109.4,170.4-109.6z M195.1-81.1c0,6.4,0,12.8,0,19.2c0,0.3,0,0.7,0,1
		c0.1,1.7,1.7,2.7,3.2,2.1c1-0.4,1.5-1.3,1.5-2.6c0-13.2,0-26.3,0-39.5c0-0.3,0-0.5-0.1-0.8c-0.2-1.3-1.4-2.2-2.7-2
		c-1.2,0.2-2,1.2-2,2.6C195.1-94.3,195.1-87.7,195.1-81.1z M189.2-60.8c-0.3-3.9-0.5-7.7-0.8-11.4c-0.5-7.7-1-15.4-1.5-23
		c-0.1-2-0.2-4.1-0.4-6.1c-0.1-1.4-1.2-2.4-2.6-2.3c-1.3,0.1-2.3,1.2-2.2,2.6c0.2,3.7,0.5,7.3,0.7,11c0.5,7.7,1,15.4,1.5,23.1
		c0.1,2.1,0.3,4.2,0.4,6.3c0.1,1.3,1.3,2.2,2.5,2.1C188.2-58.7,189.2-59.8,189.2-60.8z M206-62.1C205.9-62.1,205.9-62.1,206-62.1
		c-0.1,0.5-0.1,1-0.1,1.5c0.1,1.2,1.2,2.1,2.4,2.1c1.2,0,2.2-0.9,2.3-2.1c0.2-1.8,0.3-3.7,0.4-5.5c0.4-6.5,0.9-12.9,1.3-19.4
		c0.3-5.1,0.7-10.1,1-15.2c0.1-1.6-0.8-2.7-2.2-2.8c-1.4-0.1-2.5,0.9-2.6,2.5c-0.2,3-0.4,6-0.6,9C207.3-82.2,206.6-72.1,206-62.1z"
		/>
	<path id="XMLID_599_" class="st1" d="M183.8-120.3c0-1.7,0-3.3,0-4.9c0-0.6,0-1.3,0.1-1.9c0.4-2.4,1.9-3.7,4.3-3.9
		c0.5,0,1-0.1,1.4-0.1c5.3,0,10.6,0,15.8,0c0.5,0,1,0,1.4,0.1c2.7,0.2,4,1.5,4.2,4.2c0.1,1.9,0.1,3.8,0.1,5.7c0,0.2,0,0.5,0,0.8
		c0.3,0,0.6,0,0.8,0c3.5,0,7,0,10.5,0c0.6,0,1.3,0.1,1.8,0.3c1.9,0.6,3.2,2.4,3,4.3c-0.1,2-1.6,3.6-3.5,4c-0.4,0.1-0.8,0.1-1.2,0.1
		c-16.7,0-33.5,0-50.2,0c-1.4,0-2.7-0.5-3.6-1.5c-1.1-1.2-1.4-2.6-0.9-4.1c0.6-1.6,1.8-2.6,3.5-2.9c0.4-0.1,0.8-0.1,1.3-0.1
		c3.4,0,6.9,0,10.3,0C183.2-120.3,183.5-120.3,183.8-120.3z M189.8-120.4c5.2,0,10.3,0,15.4,0c0-1.6,0-3.1,0-4.7
		c-5.2,0-10.3,0-15.4,0C189.8-123.5,189.8-121.9,189.8-120.4z"/>
</g>
<circle id="XMLID_424_" class="st3" cx="-101" cy="-90.5" r="64.5"/>
<g id="XMLID_403_">
	<path id="XMLID_436_" class="st1" d="M10.9,60.6c0.6-0.5,0.9-0.8,1.2-1.1c5.3-5.2,10.5-10.5,15.8-15.7c0.4-0.4,0.8-0.8,1.3-1.2
		c1.9-1.5,4.6-1.6,6.6-0.2c2.1,1.5,2.9,4.2,1.9,6.5c-0.4,0.9-1,1.5-1.6,2.2c-2,2-4,4-6,6c-3.5,3.5-7,7-10.5,10.5
		c-0.3,0.3-0.5,0.5-0.7,0.8c0.2,0.5,0.6,0.3,0.9,0.3c3.9,0,7.9,0,11.8,0c0.5,0,0.9,0,1.4,0c2.8,0.2,4.9,2.4,5,5.1
		c0.1,2.7-1.8,5.2-4.5,5.6c-0.5,0.1-1,0.1-1.5,0.1c-8.7,0-17.4,0-26.1,0c-0.5,0-1,0-1.5-0.1c-2.4-0.4-4.2-2.3-4.4-4.7
		c-0.1-0.4,0-0.9,0-1.4c0-8.6,0-17.1,0-25.7c0-0.4,0-0.7,0-1.1c0.2-2.4,1.8-4.5,4.1-5c2.4-0.6,4.7,0.4,6,2.5
		c0.5,0.8,0.7,1.6,0.7,2.4c0,0.5,0,0.9,0,1.4c0,3.7,0,7.4,0,11.1C10.9,59.3,10.9,59.8,10.9,60.6z"/>
	<path id="XMLID_435_" class="st1" d="M60.9,11.7c-0.6-0.2-1.1-0.2-1.6-0.2c-3.8,0-7.6,0-11.4,0c-0.9,0-1.7-0.1-2.5-0.4
		C43,10.2,41.6,7.8,42,5.3c0.3-2.4,2.4-4.4,4.9-4.6c0.4,0,0.8,0,1.2,0c8.6,0,17.2,0,25.8,0c1,0,2.1,0,3,0.5c1.8,1,2.9,2.4,3.1,4.5
		c0,0.5,0,0.9,0,1.4c0,8.4,0,16.9,0,25.3c0,0.5,0,0.9,0,1.4c-0.2,2.8-2.6,5.1-5.4,5c-2.8,0-5.1-2.2-5.4-5c0-0.4,0-0.9,0-1.4
		c0-3.8,0-7.5,0-11.3c0-0.4,0-0.9,0-1.3c-0.5-0.3-0.6,0.1-0.8,0.3c-1.8,1.8-3.5,3.5-5.3,5.3c-3.8,3.8-7.6,7.6-11.3,11.3
		c-0.7,0.7-1.5,1.3-2.4,1.7c-2.3,0.8-4.7,0.1-6.3-2c-1.4-1.9-1.4-4.6,0.1-6.5c0.3-0.4,0.6-0.7,0.9-1c5.3-5.4,10.7-10.7,16-16.1
		C60.3,12.6,60.7,12.3,60.9,11.7z"/>
</g>
</svg>
