<?xml version="1.0" encoding="utf-8"?>
<!-- Generator: Adobe Illustrator 19.0.0, SVG Export Plug-In . SVG Version: 6.00 Build 0)  -->
<svg version="1.1" id="Camada_1" xmlns="http://www.w3.org/2000/svg" xmlns:xlink="http://www.w3.org/1999/xlink" x="0px" y="0px"
	 viewBox="0 0 100 100" style="enable-background:new 0 0 100 100;" xml:space="preserve">
<style type="text/css">
	.st0{fill:#FFFFFF;}
</style>
<path id="XMLID_817_" class="st0" d="M66.5,55C74.6,49.6,80,40.4,80,30C80,13.5,66.5,0,50,0C33.5,0,20,13.5,20,30
	c0,10.4,5.4,19.6,13.5,25C15.1,61.8,2,79.4,2,100h8c0-22.1,17.9-40,40-40c22.1,0,40,17.9,40,40h8C98,79.4,84.9,61.8,66.5,55z M50,52
	c-12.1,0-22-9.9-22-22c0-12.1,9.9-22,22-22c12.1,0,22,9.9,22,22C72,42.1,62.1,52,50,52z"/>
</svg>
