<?xml version="1.0" encoding="utf-8"?>
<!-- Generator: Adobe Illustrator 19.0.0, SVG Export Plug-In . SVG Version: 6.00 Build 0)  -->
<svg version="1.1" id="Camada_1" xmlns="http://www.w3.org/2000/svg" xmlns:xlink="http://www.w3.org/1999/xlink" x="0px" y="0px"
	 viewBox="0 0 415 376" style="enable-background:new 0 0 415 376;" xml:space="preserve">
<style type="text/css">
	.st0{fill:#17A7FF;}
	.st1{fill:#FFC612;}
	.st2{fill:#FFFFFF;}
</style>
<g id="XMLID_31_">
	<g id="XMLID_50_">
		<path id="XMLID_56_" class="st0" d="M232.7,157.1c12.3-8.2,20.5-22.2,20.5-38.1c0-25.2-20.5-45.7-45.7-45.7
			c-25.2,0-45.7,20.5-45.7,45.7c0,15.9,8.2,29.9,20.5,38.1c-27.9,10.3-47.9,37.1-47.9,68.6h12.2c0-33.6,27.4-61,61-61
			c33.6,0,61,27.4,61,61h12.2C280.7,194.3,260.7,167.4,232.7,157.1z M207.5,152.6c-18.5,0-33.5-15-33.5-33.5
			c0-18.5,15-33.5,33.5-33.5c18.5,0,33.5,15,33.5,33.5C241,137.5,226,152.6,207.5,152.6z"/>
		<path id="XMLID_55_" class="st1" d="M293.7,126.6c12.3-8.2,20.5-22.2,20.5-38.1c0-25.2-20.5-45.7-45.7-45.7
			c-12.2,0-23.3,4.8-31.5,12.7c-3,2.9-5.7,6.2-7.8,9.9c3.8,1.5,7.4,3.4,10.8,5.7c2.2-3.5,4.9-6.6,8.2-9.1c5.7-4.3,12.7-7,20.4-7
			C287,55,302,70,302,88.5c0,15.3-10.4,28.3-24.5,32.3c-2.9,0.8-5.9,1.3-9.1,1.3c-1.1,0-2.1-0.1-3.2-0.2c-0.2,4.4-0.9,8.6-2.1,12.7
			c1.7-0.2,3.5-0.4,5.2-0.4c2.5,0,4.9,0.2,7.3,0.5c30.2,3.6,53.7,29.3,53.7,60.5h12.2C341.6,163.8,321.6,137,293.7,126.6z"/>
		<path id="XMLID_54_" class="st1" d="M146.5,134.3c1.8,0,3.5,0.2,5.2,0.4c-1.1-4.1-1.8-8.3-2.1-12.7c-1.1,0.1-2.1,0.2-3.2,0.2
			c-3.1,0-6.2-0.5-9.1-1.3c-14.1-4-24.5-16.9-24.5-32.3C113,70,128,55,146.5,55c7.7,0,14.7,2.6,20.4,7c3.3,2.5,6,5.6,8.2,9.1
			c3.4-2.3,7-4.2,10.8-5.7c-2.2-3.6-4.8-7-7.8-9.9c-8.2-7.8-19.3-12.7-31.5-12.7c-25.2,0-45.7,20.5-45.7,45.7
			c0,15.9,8.2,29.9,20.5,38.1c-27.9,10.3-47.9,37.1-47.9,68.6h12.2c0-31.1,23.5-56.9,53.7-60.5C141.6,134.5,144.1,134.3,146.5,134.3
			z"/>
		<path id="XMLID_53_" class="st1" d="M336.4,84c12.3-8.2,20.5-22.2,20.5-38.1c0-25.2-20.5-45.7-45.7-45.7
			c-12.2,0-23.3,4.8-31.5,12.7c-3,2.9-5.7,6.2-7.8,9.9c3.8,1.5,7.4,3.4,10.8,5.7c2.2-3.5,4.9-6.6,8.2-9.1c5.7-4.3,12.7-7,20.4-7
			c18.5,0,33.5,15,33.5,33.5c0,13.5-8.1,25.1-19.6,30.4c0.5,2.9,0.8,5.9,0.8,8.9c0,2.8-0.3,5.5-0.7,8.1
			c26.9,6.4,46.9,30.5,46.9,59.2h12.2C384.3,121.1,364.3,94.3,336.4,84z"/>
		<path id="XMLID_52_" class="st1" d="M89.1,85.2c0-3,0.3-6,0.8-8.9C78.4,71,70.3,59.4,70.3,45.9c0-18.5,15-33.5,33.5-33.5
			c7.7,0,14.7,2.6,20.4,7c3.3,2.5,6,5.6,8.2,9.1c3.4-2.3,7-4.2,10.8-5.7c-2.2-3.6-4.8-7-7.8-9.9C127.2,5,116.1,0.1,103.8,0.1
			c-25.2,0-45.7,20.5-45.7,45.7c0,15.9,8.2,29.9,20.5,38.1c-27.9,10.3-47.9,37.1-47.9,68.6h12.2c0-28.8,20.1-52.9,46.9-59.2
			C89.4,90.7,89.1,88,89.1,85.2z"/>
		<path id="XMLID_51_" class="st1" d="M207.5,12.3c16.3,0,29.8,11.8,32.8,27.2c6.7-4,11.5-4.9,11.5-4.9c-5-19.8-22.9-34.5-44.3-34.5
			c-21.3,0-39.2,14.7-44.3,34.5c0,0,4.8,0.9,11.5,4.9C177.7,24.1,191.2,12.3,207.5,12.3z"/>
	</g>
	<g id="XMLID_32_">
		<path id="XMLID_48_" class="st2" d="M23.5,316.4c-7.1-3.5-12.5-8.5-16.3-14.9c-3.8-6.4-5.7-13.9-5.7-22.4
			c0-11.8,2.2-22.3,6.7-31.4s10.5-16.2,18.1-21.3c7.6-5,16.1-7.5,25.4-7.5c8.7,0,15.3,2.2,19.8,6.7c4.5,4.5,6.7,10.3,6.7,17.7
			c0,4.9-0.9,8.8-2.6,11.8c-1.7,3-4.2,4.5-7.4,4.5c-2.2,0-4-0.5-5.3-1.6c-1.3-1-1.9-2.6-1.9-4.6c0-0.7,0.2-2,0.5-4
			c0.5-2.4,0.7-4.3,0.7-5.8c0-7.3-3.9-11-11.7-11c-5.3,0-10.4,1.7-15.2,5.2c-4.8,3.5-8.7,8.5-11.7,15.2c-3,6.7-4.5,14.7-4.5,23.9
			c0,9.6,2.7,17.1,8.1,22.4c5.4,5.3,13.3,7.9,23.9,7.9c5.2,0,10.5-0.7,15.8-2c5.3-1.3,11.3-3.4,17.8-6.1c1.2-0.5,2.2-0.7,3-0.7
			c1.3,0,2.2,0.5,2.9,1.4c0.6,1,1,2.2,1,3.7c0,4.9-2.7,8.5-8,10.8c-5.7,2.5-11.6,4.3-17.8,5.5c-6.1,1.2-12,1.7-17.5,1.7
			C38.9,321.7,30.6,319.9,23.5,316.4z"/>
		<path id="XMLID_46_" class="st2" d="M83.3,316.7c-2.3-3.3-3.4-7.5-3.4-12.5c0-6,0.4-11.5,1.2-16.6c0.8-5,2.1-10.3,4-16
			c0.8-2.4,1.9-4.1,3.4-5.2c1.4-1,3.7-1.6,6.9-1.6c1.8,0,3,0.3,3.7,0.8c0.7,0.6,1,1.4,1,2.5c0,0.6-0.4,2.8-1.3,6.5
			c-0.8,3-1.4,5.7-1.9,8.1c-1.6,8.4-2.4,14.1-2.4,16.9c0,1.7,0.2,2.9,0.6,3.6c0.4,0.7,1,1,1.9,1c1.2,0,2.7-1.2,4.5-3.6
			c1.8-2.4,3.7-6.1,5.8-11c2-4.9,4-10.9,6-18.1c0.6-2.4,1.6-4.1,3-5.2c1.3-1,3.3-1.6,6-1.6c1.8,0,3.1,0.2,3.9,0.7
			c0.7,0.4,1.1,1.3,1.1,2.5c0,2-1,7.5-3,16.5c-2.3,10.3-3.4,16.6-3.4,19c0,1.5,0.3,2.7,1,3.6c0.6,0.8,1.5,1.3,2.5,1.3
			c1.6,0,3.5-1,5.7-3c2.2-2,5.2-5.2,8.9-9.6c1-1.1,2-1.7,3.3-1.7c1,0,1.9,0.5,2.5,1.4c0.6,1,0.9,2.3,0.9,4c0,3.2-0.8,5.7-2.3,7.5
			c-3.5,4.3-7.2,7.8-11.1,10.5c-4,2.7-8.5,4.1-13.6,4.1c-3.9,0-6.7-1.5-8.5-4.5c-1.8-3-2.7-7.1-2.7-12.5c-1.4,5.5-3.4,9.7-6.1,12.6
			c-2.7,2.9-5.7,4.4-8.8,4.4C88.6,321.7,85.6,320,83.3,316.7z"/>
		<path id="XMLID_44_" class="st2" d="M146,321.4c-2.2-1.9-3.3-4.1-3.3-6.5c0-2.1,0.8-3.9,2.3-5.4c1.5-1.5,3.8-2.3,6.7-2.3
			c1,0,2.3,0.1,3.7,0.3c1.4,0.2,2.5,0.3,3.2,0.4c-0.1-2.1-0.5-4.1-1.4-5.9c-0.8-1.8-1.9-3.6-3.2-5.4c-1.3-1.7-2.5-3.2-3.6-4.5
			c-2.5,4.7-5,8.7-7.4,11.8c-2.5,3.1-5.1,6.1-8,8.9c-1.4,1.4-3,2.2-4.6,2.2c-1.3,0-2.3-0.5-3.1-1.4c-0.8-0.9-1.2-2.1-1.2-3.4
			c0-1.6,0.6-3.1,1.7-4.5l1.6-1.9c4.4-5.5,7.8-10,10-13.5c1.4-2.3,3-5.4,4.8-9.3c1.8-3.9,3.7-7.9,5.4-12.1c1.5-3.5,4.7-5.3,9.5-5.3
			c2.2,0,3.8,0.2,4.7,0.6c0.9,0.4,1.3,1,1.3,1.9c0,0.5-0.2,1.2-0.5,2.3c-0.3,1-0.8,2.1-1.3,3.1c-1.4,2.9-2.2,5.3-2.2,7.3
			c0,1.2,0.4,2.5,1.3,4c0.8,1.4,2.1,3.3,3.9,5.4c2.6,3.4,4.5,6.2,5.8,8.6c1.3,2.4,2,5,2,7.8c0,0.8-0.1,1.9-0.2,3.4
			c3.9-1.5,8.6-5.6,13.9-12.2c1-1.1,2-1.7,3.3-1.7c1,0,1.9,0.5,2.5,1.4c0.6,1,0.9,2.3,0.9,4c0,3.1-0.8,5.5-2.3,7.5
			c-4,5-7.9,8.4-11.5,10.2c-3.7,1.8-8.2,2.8-13.6,3c-3.2,2.7-7,4.1-11.4,4.1C151.4,324.3,148.2,323.3,146,321.4z"/>
		<path id="XMLID_41_" class="st2" d="M238.4,295.6c0.6,1,0.9,2.3,0.9,4c0,3.2-0.8,5.7-2.3,7.5c-3.5,4.3-7.2,7.8-11.3,10.5
			c-4.1,2.7-8.8,4.1-14.1,4.1c-16.4,0-24.6-11.5-24.6-34.6c0-3.5,0.1-7.1,0.4-10.7h-4.7c-2.4,0-4-0.4-4.9-1.3
			c-0.8-0.9-1.3-2.3-1.3-4.2c0-4.5,1.8-6.7,5.4-6.7h6.9c1.4-8.8,3.5-16.9,6.3-24.2c2.8-7.3,6.2-13.1,10.2-17.5
			c4-4.3,8.3-6.5,12.8-6.5c3.4,0,6,1.5,8,4.5c1.9,3,2.9,6.7,2.9,11.2c0,12.5-5.2,23.3-15.7,32.5h13.5c1.3,0,2.2,0.3,2.8,0.8
			c0.6,0.6,0.8,1.6,0.8,3.1c0,5.5-4.5,8.3-13.6,8.3h-14.7c-0.2,4-0.2,7.2-0.2,9.4c0,8.4,1,14.2,3,17.6s5.1,5.1,9.3,5.1
			c3.5,0,6.5-1,9.2-3.1c2.7-2.1,5.8-5.2,9.4-9.4c1-1.1,2-1.7,3.3-1.7C237,294.2,237.8,294.7,238.4,295.6z M210.8,231.9
			c-1.5,3-2.9,7.2-4.2,12.5c-1.3,5.3-2.4,11.3-3.3,17.8c4.7-4.1,8.3-8.7,10.7-13.8c2.4-5.1,3.6-9.7,3.6-13.9c0-4.7-0.9-7.1-2.7-7.1
			C213.6,227.4,212.3,228.9,210.8,231.9z"/>
		<path id="XMLID_38_" class="st2" d="M291,285.6c0.6,1,0.8,2.4,0.8,4c0,3.9-1.2,6.1-3.5,6.9c-4.8,1.7-10.1,2.7-15.9,2.9
			c-1.5,6.7-4.5,12.2-9,16.2c-4.5,4.1-9.6,6.1-15.3,6.1c-4.8,0-8.9-1.2-12.4-3.5c-3.4-2.3-6-5.4-7.8-9.3c-1.8-3.9-2.7-8-2.7-12.5
			c0-6.1,1.2-11.5,3.5-16.3c2.3-4.8,5.5-8.5,9.6-11.2c4.1-2.7,8.6-4,13.6-4c6.1,0,11,2.1,14.8,6.3s5.9,9.4,6.6,15.6
			c3.8-0.2,8.3-1,13.5-2.4c0.6-0.2,1.2-0.2,1.7-0.2C289.6,284.1,290.4,284.6,291,285.6z M255.8,305.7c1.9-2.1,3.2-5.1,3.8-9
			c-2.5-1.7-4.4-3.9-5.7-6.6c-1.3-2.7-2-5.6-2-8.7c0-1.3,0.1-2.6,0.4-3.9h-0.6c-3.2,0-5.9,1.5-8,4.6c-2.1,3.1-3.2,7.5-3.2,13.1
			c0,4.4,0.9,7.8,2.6,10.1c1.7,2.3,3.8,3.5,6.1,3.5C251.6,308.9,253.9,307.8,255.8,305.7z"/>
		<path id="XMLID_36_" class="st2" d="M281.2,316.8c-1.2-3.2-1.9-8.4-1.9-15.4c0-10.4,1.5-20.4,4.5-29.8c0.7-2.3,1.9-4,3.6-5.1
			c1.6-1.1,4-1.6,6.9-1.6c1.6,0,2.7,0.2,3.4,0.6c0.6,0.4,1,1.2,1,2.3c0,1.3-0.6,4.2-1.8,8.7c-0.8,3.2-1.4,6-1.9,8.4
			c-0.5,2.4-0.9,5.3-1.2,8.9c2.2-6.3,4.8-11.6,7.8-15.9c3-4.3,6.1-7.6,9.3-9.7c3.2-2.1,6.2-3.2,9-3.2c2.8,0,4.8,0.6,6,1.9
			c1.2,1.3,1.7,3.3,1.7,5.9c0,2.6-0.8,7.2-2.3,14c-0.6,2.9-1.1,5.1-1.3,6.5c4-9.9,8.5-17.1,13.4-21.6c4.9-4.5,9.5-6.7,13.7-6.7
			c5.2,0,7.8,2.6,7.8,7.8c0,3.1-0.9,8.8-2.6,17c-1.5,7-2.3,11.6-2.3,13.9c0,3.2,1.2,4.8,3.5,4.8c1.6,0,3.5-1,5.7-3
			c2.2-2,5.2-5.2,8.9-9.6c1-1.1,2-1.7,3.3-1.7c1,0,1.9,0.5,2.5,1.4s0.9,2.3,0.9,4c0,3.2-0.8,5.7-2.3,7.5c-3.5,4.3-7.2,7.8-11.1,10.5
			c-4,2.7-8.5,4.1-13.6,4.1c-4.1,0-7.2-1.2-9.3-3.6c-2.1-2.4-3.1-5.8-3.1-10.3c0-2.2,0.6-6.3,1.7-12c1-5.1,1.6-8.6,1.6-10.5
			c0-1.3-0.4-1.9-1.3-1.9c-1,0-2.5,1.3-4.5,4c-1.9,2.7-3.9,6.2-5.8,10.7c-1.9,4.4-3.5,9.1-4.7,14c-0.9,3.9-1.9,6.4-3.1,7.7
			c-1.2,1.3-3,1.9-5.6,1.9c-2.6,0-4.6-1.3-6-3.8c-1.3-2.5-2-5.6-2-9.2c0-3.1,0.4-7.5,1.2-13.3c0.6-5.1,1-8.5,1-10.1
			c0-1.3-0.4-1.9-1.3-1.9c-1.2,0-2.7,1.4-4.6,4.3c-1.8,2.9-3.6,6.6-5.4,11.1c-1.7,4.5-3.1,8.9-4.2,13.3c-0.9,3.8-1.9,6.3-3.1,7.7
			c-1.2,1.3-3,2-5.5,2C284.6,321.7,282.4,320,281.2,316.8z"/>
		<path id="XMLID_33_" class="st2" d="M412.3,265.6c0.7,0.5,1.1,1.3,1.1,2.4c0,1.9-1,8.8-3.1,20.6c-1.8,11.3-2.9,18-3.3,20.1
			c-3,20.6-7.1,37-12.3,49c-5.2,12-12.2,18.1-20.8,18.1c-4.1,0-7.4-1.3-10-3.8c-2.6-2.5-3.9-5.8-3.9-9.9c0-3.8,0.9-7.6,2.6-11.6
			c1.7-3.9,4.9-8.5,9.6-13.6c4.7-5.1,11.3-10.9,19.9-17.5l0.4-2.8c0.6-3,1.2-7.2,1.9-12.8c-1.6,5.8-3.9,10.2-6.7,13.2
			c-2.9,3-5.9,4.5-9.2,4.5c-3.6,0-6.6-1.7-8.9-5c-2.3-3.3-3.4-7.5-3.4-12.5c0-6,0.4-11.5,1.2-16.6c0.8-5,2.1-10.3,4-16
			c0.8-2.4,1.9-4.1,3.4-5.2c1.4-1,3.7-1.6,6.9-1.6c1.8,0,3,0.3,3.7,0.8c0.7,0.6,1,1.4,1,2.5c0,0.6-0.4,2.8-1.3,6.5
			c-0.8,3-1.4,5.7-1.9,8.1c-0.6,3.3-1.2,6.4-1.7,9.5c-0.5,3-0.7,5.5-0.7,7.4c0,3.1,0.8,4.6,2.5,4.6c1.2,0,2.7-1.2,4.5-3.6
			c1.8-2.4,3.7-6.1,5.8-11c2-4.9,4-10.9,6-18.1c0.6-2.4,1.6-4.1,3-5.2c1.3-1,3.3-1.6,6-1.6C410.3,264.9,411.6,265.1,412.3,265.6z
			 M382,357.2c2.5-4.7,5-12.4,7.5-23.3c-6.2,5.2-10.7,10-13.4,14.3c-2.8,4.3-4.2,8.1-4.2,11.3c0,1.4,0.3,2.5,0.8,3.4
			c0.5,0.9,1.4,1.3,2.6,1.3C377.2,364.2,379.5,361.9,382,357.2z"/>
	</g>
</g>
</svg>
