<?xml version="1.0" encoding="utf-8"?>
<!-- Generator: Adobe Illustrator 19.0.0, SVG Export Plug-In . SVG Version: 6.00 Build 0)  -->
<svg version="1.1" id="Camada_1" xmlns="http://www.w3.org/2000/svg" xmlns:xlink="http://www.w3.org/1999/xlink" x="0px" y="0px"
	 viewBox="0 0 80 80" style="enable-background:new 0 0 80 80;" xml:space="preserve">
<style type="text/css">
	.st0{fill:#17A7FF;}
	.st1{fill:#FF4343;}
	.st2{fill:#FFFFFF;}
	.st3{fill:#A53EFF;}
</style>
<circle id="XMLID_615_" class="st0" cx="49" cy="-90.5" r="64.5"/>
<circle id="XMLID_607_" class="st1" cx="197.5" cy="-90.5" r="64.5"/>
<g id="XMLID_598_">
	<path id="XMLID_602_" class="st2" d="M13.2,21.2c17.8,0,35.7,0,53.5,0c-0.1,1.2-0.2,2.4-0.4,3.6c-0.5,4.9-1,9.8-1.5,14.7
		c-0.6,5.6-1.2,11.2-1.7,16.8c-0.5,4.8-1,9.6-1.5,14.4c-0.1,1.3-0.1,2.6-0.5,3.8c-0.7,2.4-2.3,4.2-4.7,5c-0.9,0.3-1.9,0.4-2.9,0.4
		c-9.1,0-18.2,0-27.3,0c-3.7,0-6.4-1.8-7.5-5c-0.3-0.9-0.3-1.8-0.4-2.7c-0.8-7.7-1.6-15.4-2.4-23c-0.7-7.1-1.5-14.3-2.2-21.4
		c-0.2-2.1-0.4-4.1-0.6-6.2C13.2,21.4,13.2,21.3,13.2,21.2z M37.6,49.2c0,6.3,0,12.6,0,19c0,0.3,0,0.7,0,1c0.1,1.6,1.7,2.7,3.2,2.1
		c1-0.4,1.5-1.3,1.5-2.6c0-13,0-25.9,0-38.9c0-0.3,0-0.5-0.1-0.8c-0.2-1.3-1.4-2.1-2.7-1.9c-1.2,0.2-2,1.2-2,2.6
		C37.6,36.2,37.6,42.7,37.6,49.2z M31.8,69.2c-0.3-3.9-0.5-7.5-0.7-11.2c-0.5-7.6-1-15.1-1.5-22.7c-0.1-2-0.2-4-0.4-6
		c-0.1-1.4-1.2-2.3-2.5-2.2c-1.3,0.1-2.2,1.2-2.2,2.5c0.2,3.6,0.5,7.2,0.7,10.8c0.5,7.6,1,15.2,1.5,22.8c0.1,2.1,0.2,4.2,0.4,6.2
		c0.1,1.3,1.2,2.1,2.5,2.1C30.8,71.4,31.8,70.3,31.8,69.2z M48.3,67.9C48.3,67.9,48.3,67.9,48.3,67.9c-0.1,0.5-0.1,1-0.1,1.5
		c0.1,1.2,1.2,2,2.3,2c1.2,0,2.2-0.9,2.3-2.1c0.2-1.8,0.2-3.6,0.4-5.4c0.4-6.4,0.9-12.8,1.3-19.1c0.3-5,0.7-10,1-15
		c0.1-1.5-0.8-2.7-2.2-2.8C52,27,51,28,50.9,29.5c-0.2,3-0.4,5.9-0.6,8.9C49.6,48.2,49,58.1,48.3,67.9z"/>
	<path id="XMLID_599_" class="st2" d="M26.5,10.6c0-1.7,0-3.2,0-4.8c0-0.6,0-1.2,0.1-1.8c0.4-2.3,1.9-3.7,4.2-3.9
		c0.5,0,1-0.1,1.4-0.1c5.2,0,10.4,0,15.6,0c0.5,0,1,0,1.4,0.1c2.6,0.2,4,1.5,4.1,4.2c0.1,1.9,0.1,3.7,0.1,5.6c0,0.2,0,0.5,0,0.8
		c0.3,0,0.5,0,0.8,0c3.4,0,6.9,0,10.3,0c0.6,0,1.2,0.1,1.8,0.3c1.9,0.6,3.1,2.4,3,4.2c-0.1,1.9-1.5,3.5-3.5,3.9
		c-0.4,0.1-0.8,0.1-1.2,0.1c-16.5,0-33,0-49.5,0c-1.4,0-2.6-0.5-3.6-1.5c-1-1.2-1.4-2.5-0.9-4c0.6-1.6,1.8-2.5,3.4-2.9
		c0.4-0.1,0.8-0.1,1.2-0.1c3.4,0,6.8,0,10.2,0C25.9,10.6,26.1,10.6,26.5,10.6z M32.4,10.5c5.1,0,10.2,0,15.2,0c0-1.6,0-3.1,0-4.6
		c-5.1,0-10.1,0-15.2,0C32.4,7.5,32.4,9,32.4,10.5z"/>
</g>
<circle id="XMLID_424_" class="st3" cx="-101" cy="-90.5" r="64.5"/>
</svg>
