<?xml version="1.0" encoding="utf-8"?>
<!-- Generator: Adobe Illustrator 19.0.0, SVG Export Plug-In . SVG Version: 6.00 Build 0)  -->
<svg version="1.1" id="Camada_1" xmlns="http://www.w3.org/2000/svg" xmlns:xlink="http://www.w3.org/1999/xlink" x="0px" y="0px"
	 viewBox="0 0 100 100" style="enable-background:new 0 0 100 100;" xml:space="preserve">
<style type="text/css">
	.st0{fill:#FFFFFF;}
</style>
<g id="XMLID_219_">
	<path id="XMLID_224_" class="st0" d="M69.6,21c3.2,3.2,6.2,6.3,9.3,9.4c-0.1,0.1-0.3,0.3-0.4,0.5C62.6,46.7,46.7,62.6,30.9,78.4
		c-2,2-4.2,2.7-6.9,1.9c-4.8-1.4-6.2-7.4-2.7-11c2.6-2.7,5.3-5.3,7.9-7.9C42.5,48.2,55.7,35,69,21.8C69.2,21.5,69.4,21.3,69.6,21z"
		/>
	<path id="XMLID_223_" class="st0" d="M91.7,35.2c-9-9-17.8-17.9-26.8-26.9c2-1.9,3.9-4,6.2-5.8c4.8-3.7,11.7-3.2,16,0.9
		c3.3,3.1,6.5,6.3,9.5,9.5c4.6,4.9,4.5,12.7-0.3,17.5C94.8,32.1,93.2,33.6,91.7,35.2z"/>
	<path id="XMLID_222_" class="st0" d="M82.8,34.2c1.7,1.7,3.3,3.3,4.9,4.9c-0.1,0.1-0.3,0.3-0.4,0.5C71.3,55.5,55.4,71.4,39.5,87.3
		c-1.1,1.1-2.3,1.5-3.7,1c-1.3-0.4-2.1-1.4-2.3-2.8c-0.2-1.2,0.3-2.2,1.2-3.1c4-4,7.9-7.9,11.9-11.9c11.9-11.9,23.8-23.8,35.8-35.7
		C82.4,34.6,82.6,34.4,82.8,34.2z"/>
	<path id="XMLID_221_" class="st0" d="M60.8,12.3c1.7,1.7,3.3,3.3,4.9,4.9c-0.1,0.1-0.3,0.3-0.5,0.5C49.4,33.6,33.5,49.5,17.7,65.3
		c-1.5,1.5-3.6,1.7-5.1,0.4c-1.5-1.4-1.5-3.6,0-5.1c2.5-2.5,5-5,7.4-7.4c13.4-13.4,26.8-26.8,40.3-40.2
		C60.5,12.7,60.7,12.5,60.8,12.3z"/>
	<path id="XMLID_220_" class="st0" d="M7.9,68.4c1.5,2.3,3.7,3.2,6.2,3.6c-1.5,8,5.7,15.4,14,13.9c0.4,2.4,1.2,4.6,3.4,6.2
		C20.9,94.7,10.5,97.3,0,100C2.6,89.4,5.2,79,7.9,68.4z"/>
</g>
</svg>
