<?xml version="1.0" encoding="utf-8"?>
<!-- Generator: Adobe Illustrator 19.0.0, SVG Export Plug-In . SVG Version: 6.00 Build 0)  -->
<svg version="1.1" id="Camada_1" xmlns="http://www.w3.org/2000/svg" xmlns:xlink="http://www.w3.org/1999/xlink" x="0px" y="0px"
	 viewBox="0 0 100 100" style="enable-background:new 0 0 100 100;" xml:space="preserve">
<style type="text/css">
	.st0{fill:#FFFFFF;}
</style>
<g id="XMLID_659_">
	<path id="XMLID_664_" class="st0" d="M12.8,1c0,0.3,0,0.5,0,0.8c0,9.6,0,19.2,0,28.8c0,1.6,0.7,2.3,2.3,2.3c15,0,30,0,45,0
		c1.7,0,2.3-0.7,2.3-2.3c0-9.6,0-19.2,0-28.8c0-0.2,0-0.5,0-0.8c0.2,0,0.4,0,0.6,0c6.7,0,13.4,0,20.1,0c0.4,0,0.6,0.1,0.9,0.4
		C89.2,6.9,94.4,12.4,99.6,18c0.2,0.2,0.3,0.5,0.3,0.8c0,15.9,0,31.9,0,47.8c0,9,0,17.9,0,26.9c0,3-2.3,5.6-5.5,5.6
		c-21.7,0-43.5,0-65.2,0c-8,0-15.9,0-23.9,0c-2.7,0-4.8-1.7-5.3-4.3C0,94.4,0,94.1,0,93.8c0-20.7,0-41.4,0-62.1c0-8.4,0-16.8,0-25.3
		c0-3.3,2.2-5.5,5.5-5.5c2.3,0,4.5,0,6.8,0C12.4,0.9,12.6,1,12.8,1z M50.7,48.2c-11.3,0-22.5,0-33.8,0c-1.9,0-3.1,1.1-3.1,3.1
		c0,12.7,0,25.5,0,38.2c0,0.3,0,0.5,0,0.8c0.3,1.5,1.4,2.4,3.2,2.4c12.8,0,25.6,0,38.4,0c9.6,0,19.2,0,28.8,0c2.1,0,3.2-1.1,3.2-3.2
		c0-12.7,0-25.4,0-38.1c0-2-1.1-3.1-3.1-3.1C73.1,48.2,61.9,48.2,50.7,48.2z"/>
	<path id="XMLID_663_" class="st0" d="M37.1,6.4c4.9,0,9.9,0,14.8,0c1.7,0,2.5,0.9,2.5,2.5c0,5.7,0,11.3,0,17c0,1.7-0.9,2.6-2.6,2.6
		c-9.9,0-19.8,0-29.8,0c-1.4,0-2.4-0.9-2.4-2.4c0-5.8,0-11.6,0-17.3c0-1.5,0.9-2.4,2.4-2.4C27.1,6.4,32.1,6.4,37.1,6.4z"/>
	<path id="XMLID_662_" class="st0" d="M50.7,69.4c10.4,0,20.8,0,31.2,0c0.7,0,1.3,0.1,1.7,0.7c0.5,0.6,0.6,1.3,0.3,2
		c-0.4,0.8-1,1.1-1.9,1.1c-2.7,0-5.4,0-8,0c-12.5,0-25.1,0-37.6,0c-5.6,0-11.3,0-16.9,0c-1.4,0-2.3-1.1-2-2.3
		c0.2-0.8,0.9-1.4,1.7-1.5c0.2,0,0.3,0,0.5,0C30,69.4,40.4,69.4,50.7,69.4z"/>
	<path id="XMLID_661_" class="st0" d="M51.1,84c-10.4,0-20.7,0-31.1,0c-1.1,0-1.8-0.4-2.1-1.3c-0.4-1.3,0.5-2.5,1.9-2.5
		c2.2,0,4.4,0,6.5,0c12.8,0,25.5,0,38.3,0c5.9,0,11.9,0,17.8,0c1.6,0,2.5,1.4,1.9,2.8c-0.4,0.7-1,1-1.7,1c-1,0-2,0-3,0
		C70.1,84,60.6,84,51.1,84z"/>
	<path id="XMLID_660_" class="st0" d="M51.2,58.7c10.4,0,20.8,0,31.2,0c1.1,0,1.9,0.5,2.1,1.5c0.2,1-0.5,2.1-1.5,2.2
		c-0.3,0-0.6,0-0.9,0c-18.3,0-36.6,0-54.9,0c-2.5,0-4.9,0-7.4,0c-1.4,0-2.3-1.2-1.9-2.5c0.3-0.8,1-1.3,1.9-1.3c3.8,0,7.7,0,11.5,0
		C37.9,58.7,44.6,58.7,51.2,58.7z"/>
</g>
</svg>
